<svg aria-hidden="true" style="position: absolute; width: 0; height: 0; overflow: hidden;" version="1.1" xmlns="http://www.w3.org/2000/svg" xmlns:xlink="http://www.w3.org/1999/xlink">
<defs>
<symbol id="icon-Vector-3" viewBox="0 0 44 32">
<path fill="#fff" style="fill: var(--color1, #fff)" d="M34.703 13.558c0-0.733 0.244-1.465 0.244-2.442 0-5.373-4.396-9.768-9.768-9.768-3.907 0-7.082 2.198-8.792 5.373-0.488-0.244-1.465-0.488-2.198-0.488-3.419 0-6.105 2.686-6.105 6.105 0 0.488 0 0.977 0.244 1.221-4.396 0.733-7.571 4.152-7.571 8.547 0 4.64 3.907 8.547 8.547 8.547h24.421c4.64 0 8.547-3.907 8.547-8.547 0-4.396-3.175-8.059-7.571-8.547z"></path>
</symbol>
<symbol id="icon-ion-logo-google-playstore" viewBox="0 0 32 32">
<path fill="#fff" style="fill: var(--color1, #fff)" d="M3 3.718v24.562c0 0.053 0.016 0.105 0.046 0.15s0.072 0.079 0.121 0.099c0.049 0.020 0.103 0.026 0.156 0.016s0.1-0.036 0.138-0.073l12.789-12.473-12.789-12.474c-0.038-0.037-0.086-0.063-0.138-0.073s-0.106-0.005-0.156 0.016c-0.049 0.021-0.091 0.055-0.121 0.099s-0.046 0.096-0.046 0.15z"></path>
<path fill="#fff" style="fill: var(--color1, #fff)" d="M21.613 10.875l-16.046-8.841c-0.276-0.15-0.539 0.224-0.313 0.441l12.571 12.020 3.788-3.621z"></path>
<path fill="#fff" style="fill: var(--color1, #fff)" d="M5.255 29.524c-0.228 0.218 0.035 0.591 0.313 0.441l0.010-0.006 16.035-8.835-3.788-3.622-12.569 12.021z"></path>
<path fill="#fff" style="fill: var(--color1, #fff)" d="M28.086 14.437l-4.478-2.466-4.211 4.029 4.211 4.027 4.478-2.464c1.218-0.673 1.218-2.452 0-3.125z"></path>
</symbol>
<symbol id="icon-Vector-2" viewBox="0 0 32 32">
<path fill="#fff" style="fill: var(--color1, #fff)" d="M16 0c-8.839 0-16 7.161-16 16s7.161 16 16 16c8.838 0 16-7.162 16-16s-7.162-16-16-16zM9.929 22.992c-0.098 0.168-0.239 0.306-0.408 0.402s-0.36 0.146-0.554 0.144c-0.198 0.002-0.392-0.052-0.561-0.154-0.126-0.073-0.236-0.17-0.325-0.286s-0.153-0.248-0.19-0.389c-0.037-0.141-0.046-0.287-0.027-0.432s0.068-0.283 0.141-0.409l1.092-1.816c0.055-0.094 0.134-0.171 0.228-0.225s0.201-0.082 0.31-0.082h0.161c0.792 0 1.346 0.476 1.508 0.938l-1.377 2.308zM19.175 19.421l-11.906 0.008c-0.15 0.001-0.298-0.029-0.435-0.087s-0.262-0.144-0.366-0.252c-0.104-0.108-0.184-0.236-0.237-0.376s-0.076-0.289-0.070-0.439c0.023-0.6 0.546-1.054 1.143-1.054h3.446l4.085-6.954-1.323-2.254c-0.298-0.514-0.166-1.191 0.345-1.514 0.126-0.081 0.267-0.137 0.415-0.162s0.299-0.021 0.445 0.014c0.146 0.035 0.283 0.098 0.404 0.187s0.222 0.201 0.298 0.331l0.707 1.208h0.008l0.708-1.208c0.076-0.128 0.177-0.24 0.298-0.329s0.257-0.152 0.403-0.186c0.145-0.034 0.296-0.039 0.443-0.014s0.288 0.080 0.414 0.16c0.508 0.323 0.639 1 0.338 1.516l-5.401 9.207v0.008h4.115c0.516 0 1.162 0.277 1.424 0.723l0.023 0.046c0.231 0.392 0.361 0.662 0.361 1.054-0.004 0.127-0.032 0.253-0.084 0.369l-0.002-0.002zM24.729 19.429h-1.936v0.008l1.416 2.408c0.152 0.253 0.199 0.557 0.13 0.844s-0.248 0.537-0.499 0.694c-0.174 0.106-0.373 0.162-0.577 0.162-0.194 0-0.384-0.050-0.552-0.146s-0.309-0.233-0.409-0.399l-3.392-5.776-1.677-2.867c-0.243-0.409-0.375-0.875-0.383-1.351s0.108-0.946 0.337-1.363c0.331-0.585 0.585-0.739 0.585-0.739l3.731 6.31h3.208c0.6 0 1.115 0.462 1.143 1.054 0.006 0.151-0.019 0.301-0.073 0.442s-0.135 0.269-0.24 0.378c-0.105 0.108-0.23 0.195-0.369 0.253s-0.288 0.089-0.439 0.088h-0.002z"></path>
</symbol>
<symbol id="icon-Frame-6" viewBox="0 0 32 32">
<path fill="#ed4c5c" style="fill: var(--color2, #ed4c5c)" d="M10.845 16.306c0-0.665-0.462-1.062-1.276-1.062-0.332 0-0.557 0.032-0.675 0.064v2.135c0.14 0.032 0.311 0.043 0.547 0.043 0.868 0 1.404-0.44 1.404-1.18z"></path>
<path fill="#ed4c5c" style="fill: var(--color2, #ed4c5c)" d="M15.887 15.265c-0.365 0-0.601 0.032-0.741 0.065v4.729c0.14 0.032 0.365 0.032 0.568 0.032 1.48 0.010 2.445-0.805 2.445-2.531 0.011-1.502-0.868-2.296-2.273-2.296z"></path>
<path fill="#ed4c5c" style="fill: var(--color2, #ed4c5c)" d="M25.548 12.487h-0.593v-2.861c-0-0.018-0.002-0.036-0.005-0.054 0.001-0.115-0.040-0.227-0.115-0.314l-4.763-5.439c-0.060-0.066-0.137-0.114-0.223-0.139l-0.026-0.009c-0.036-0.009-0.074-0.014-0.111-0.014h-11.698c-0.534 0-0.968 0.435-0.968 0.968v7.862h-0.593c-0.764 0-1.383 0.619-1.383 1.383v7.195c0 0.763 0.62 1.384 1.383 1.384h0.593v4.926c0 0.533 0.434 0.968 0.968 0.968h15.974c0.533 0 0.968-0.435 0.968-0.968v-4.926h0.593c0.764 0 1.383-0.62 1.383-1.384v-7.195c0-0.764-0.62-1.383-1.383-1.383zM8.013 4.625h11.214v4.953c0 0.268 0.217 0.484 0.484 0.484h4.276v2.425h-15.975v-7.862zM19.898 17.507c0 1.384-0.504 2.338-1.202 2.928-0.761 0.632-1.919 0.933-3.335 0.933-0.847 0-1.447-0.054-1.856-0.107v-7.1c0.601-0.096 1.383-0.15 2.21-0.15 1.372 0 2.262 0.247 2.959 0.772 0.751 0.557 1.223 1.447 1.223 2.723zM7.273 21.293v-7.133c0.504-0.086 1.212-0.15 2.209-0.15 1.008 0 1.727 0.193 2.209 0.579 0.461 0.365 0.771 0.965 0.771 1.673s-0.235 1.308-0.665 1.716c-0.558 0.526-1.383 0.762-2.349 0.762-0.214 0-0.408-0.010-0.557-0.032v2.585h-1.619zM23.987 27.113h-15.974v-4.664h15.974v4.664zM25.39 15.405h-2.778v1.652h2.596v1.33h-2.596v2.906h-1.64v-7.229h4.418v1.341z"></path>
</symbol>
<symbol id="icon-Frame-4" viewBox="0 0 32 32">
<path fill="#ed4c5c" style="fill: var(--color2, #ed4c5c)" d="M16.472 1.691l10.619 3.619c0.259 0.091 0.472 0.388 0.466 0.662v15.075c0 0.278-0.178 0.641-0.394 0.809l-10.772 8.394c-0.106 0.084-0.25 0.128-0.394 0.128s-0.284-0.044-0.394-0.128l-10.772-8.394c-0.216-0.172-0.394-0.534-0.394-0.809v-15.075c0-0.275 0.213-0.575 0.472-0.662l10.619-3.619c0.128-0.044 0.3-0.066 0.472-0.066s0.344 0.022 0.472 0.066zM16 27.703l9.313-7.256v-13.363l-9.313-3.175-9.313 3.175v13.363l9.313 7.256z"></path>
<path fill="#ed4c5c" style="fill: var(--color2, #ed4c5c)" d="M12.591 16.525c-1.097-1.738-0.887-4.066 0.628-5.581 1.759-1.759 4.609-1.759 6.369 0s1.759 4.609 0 6.369c-1.516 1.516-3.841 1.725-5.581 0.628l-2.422 2.422c-0.097 0.097-0.256 0.097-0.353 0l-1.063-1.063c-0.046-0.047-0.073-0.11-0.073-0.177s0.026-0.13 0.073-0.177l2.422-2.422zM18.172 12.359c-0.975-0.978-2.559-0.978-3.537 0s-0.975 2.559 0 3.537c0.975 0.978 2.559 0.978 3.537 0 0.978-0.975 0.978-2.559 0-3.537z"></path>
</symbol>
<symbol id="icon-Frame-3" viewBox="0 0 32 32">
<path fill="#ed4c5c" style="fill: var(--color2, #ed4c5c)" d="M19.5 22.072h-2.316v-7.572c0-0.137-0.112-0.25-0.25-0.25h-1.875c-0.137 0-0.25 0.113-0.25 0.25v7.572h-2.309c-0.209 0-0.325 0.241-0.197 0.403l3.5 4.428c0.023 0.030 0.053 0.054 0.087 0.071s0.072 0.025 0.11 0.025c0.038 0 0.075-0.009 0.109-0.025s0.064-0.041 0.087-0.071l3.5-4.428c0.128-0.162 0.012-0.403-0.197-0.403z"></path>
<path fill="#ed4c5c" style="fill: var(--color2, #ed4c5c)" d="M25.356 11.459c-1.431-3.775-5.078-6.459-9.35-6.459s-7.919 2.681-9.35 6.456c-2.678 0.703-4.656 3.144-4.656 6.044 0 3.453 2.797 6.25 6.247 6.25h1.253c0.138 0 0.25-0.112 0.25-0.25v-1.875c0-0.137-0.112-0.25-0.25-0.25h-1.253c-1.053 0-2.044-0.419-2.781-1.178-0.734-0.756-1.125-1.775-1.091-2.831 0.028-0.825 0.309-1.6 0.819-2.253 0.522-0.666 1.253-1.15 2.066-1.366l1.184-0.309 0.434-1.144c0.269-0.713 0.644-1.378 1.116-1.981 0.466-0.598 1.018-1.123 1.637-1.559 1.284-0.903 2.797-1.381 4.375-1.381s3.091 0.478 4.375 1.381c0.622 0.438 1.172 0.963 1.638 1.559 0.472 0.603 0.847 1.272 1.116 1.981l0.431 1.141 1.181 0.313c1.694 0.456 2.878 1.997 2.878 3.753 0 1.034-0.403 2.009-1.134 2.741-0.359 0.361-0.785 0.647-1.255 0.841s-0.974 0.294-1.482 0.293h-1.253c-0.138 0-0.25 0.113-0.25 0.25v1.875c0 0.138 0.112 0.25 0.25 0.25h1.253c3.45 0 6.247-2.797 6.247-6.25 0-2.897-1.972-5.334-4.644-6.041z"></path>
</symbol>
<symbol id="icon-03" viewBox="0 0 47 32">
<path d="M23.037 16.149c0 2.688-0.292 5.028-0.875 7.019-0.569 1.977-1.365 3.612-2.389 4.907-1.010 1.294-2.212 2.261-3.605 2.901-1.38 0.626-2.873 0.939-4.48 0.939s-3.1-0.313-4.48-0.939c-1.365-0.64-2.553-1.607-3.563-2.901s-1.799-2.93-2.368-4.907c-0.569-1.991-0.853-4.331-0.853-7.019 0-2.702 0.284-5.042 0.853-7.019s1.358-3.612 2.368-4.907c1.010-1.294 2.197-2.254 3.563-2.88 1.38-0.64 2.873-0.96 4.48-0.96s3.1 0.32 4.48 0.96c1.394 0.626 2.596 1.586 3.605 2.88 1.024 1.294 1.82 2.93 2.389 4.907 0.583 1.977 0.875 4.316 0.875 7.019zM17.597 16.149c0-2.233-0.164-4.082-0.491-5.547s-0.768-2.631-1.323-3.499c-0.54-0.868-1.166-1.472-1.877-1.813-0.711-0.356-1.451-0.533-2.219-0.533-0.754 0-1.486 0.178-2.197 0.533-0.697 0.341-1.316 0.946-1.856 1.813s-0.974 2.034-1.301 3.499c-0.313 1.465-0.469 3.314-0.469 5.547s0.156 4.082 0.469 5.547c0.327 1.465 0.761 2.631 1.301 3.499s1.159 1.479 1.856 1.835c0.711 0.341 1.444 0.512 2.197 0.512 0.768 0 1.508-0.171 2.219-0.512 0.711-0.356 1.337-0.967 1.877-1.835 0.555-0.868 0.996-2.034 1.323-3.499s0.491-3.314 0.491-5.547zM26.411 9.323c0.213-1.479 0.626-2.773 1.237-3.883 0.612-1.124 1.372-2.055 2.283-2.795 0.924-0.754 1.977-1.316 3.157-1.685 1.195-0.384 2.475-0.576 3.84-0.576 1.422 0 2.702 0.206 3.84 0.619 1.152 0.398 2.133 0.96 2.944 1.685 0.811 0.711 1.429 1.55 1.856 2.517 0.441 0.967 0.661 2.012 0.661 3.136 0 0.981-0.114 1.849-0.341 2.603-0.213 0.74-0.526 1.387-0.939 1.941s-0.925 1.024-1.536 1.408c-0.611 0.384-1.301 0.704-2.069 0.96 1.849 0.583 3.229 1.472 4.139 2.667s1.365 2.695 1.365 4.501c0 1.536-0.285 2.894-0.853 4.075s-1.337 2.176-2.304 2.987c-0.967 0.796-2.091 1.401-3.371 1.813-1.266 0.412-2.61 0.619-4.032 0.619-1.55 0-2.901-0.178-4.053-0.533s-2.155-0.882-3.008-1.579c-0.853-0.697-1.579-1.55-2.176-2.56s-1.109-2.176-1.536-3.499l2.325-0.96c0.612-0.256 1.18-0.32 1.707-0.192 0.54 0.114 0.932 0.398 1.173 0.853 0.256 0.498 0.533 0.988 0.832 1.472 0.313 0.484 0.683 0.917 1.109 1.301 0.427 0.37 0.924 0.676 1.493 0.917 0.583 0.228 1.273 0.341 2.069 0.341 0.896 0 1.678-0.142 2.347-0.427 0.668-0.299 1.223-0.683 1.664-1.152 0.455-0.469 0.789-0.988 1.003-1.557 0.228-0.583 0.341-1.166 0.341-1.749 0-0.74-0.078-1.408-0.235-2.005-0.156-0.612-0.484-1.131-0.981-1.557s-1.216-0.761-2.155-1.003c-0.924-0.242-2.169-0.363-3.733-0.363v-3.755c1.294-0.014 2.368-0.135 3.221-0.363s1.529-0.54 2.027-0.939c0.512-0.412 0.868-0.903 1.067-1.472s0.299-1.195 0.299-1.877c0-1.451-0.405-2.553-1.216-3.307s-1.892-1.131-3.243-1.131c-0.626 0-1.202 0.092-1.728 0.277-0.526 0.171-1.003 0.42-1.429 0.747-0.412 0.313-0.761 0.683-1.045 1.109s-0.498 0.896-0.64 1.408c-0.242 0.654-0.562 1.088-0.96 1.301-0.384 0.213-0.932 0.263-1.643 0.149l-2.773-0.491z"></path>
</symbol>
<symbol id="icon-02" viewBox="0 0 47 32">
<path d="M23.037 16.149c0 2.688-0.292 5.028-0.875 7.019-0.569 1.977-1.365 3.612-2.389 4.907-1.010 1.294-2.212 2.261-3.605 2.901-1.38 0.626-2.873 0.939-4.48 0.939s-3.1-0.313-4.48-0.939c-1.365-0.64-2.553-1.607-3.563-2.901s-1.799-2.93-2.368-4.907c-0.569-1.991-0.853-4.331-0.853-7.019 0-2.702 0.284-5.042 0.853-7.019s1.358-3.612 2.368-4.907c1.010-1.294 2.197-2.254 3.563-2.88 1.38-0.64 2.873-0.96 4.48-0.96s3.1 0.32 4.48 0.96c1.394 0.626 2.596 1.586 3.605 2.88 1.024 1.294 1.82 2.93 2.389 4.907 0.583 1.977 0.875 4.316 0.875 7.019zM17.597 16.149c0-2.233-0.164-4.082-0.491-5.547s-0.768-2.631-1.323-3.499c-0.54-0.868-1.166-1.472-1.877-1.813-0.711-0.356-1.451-0.533-2.219-0.533-0.754 0-1.486 0.178-2.197 0.533-0.697 0.341-1.316 0.946-1.856 1.813s-0.974 2.034-1.301 3.499c-0.313 1.465-0.469 3.314-0.469 5.547s0.156 4.082 0.469 5.547c0.327 1.465 0.761 2.631 1.301 3.499s1.159 1.479 1.856 1.835c0.711 0.341 1.444 0.512 2.197 0.512 0.768 0 1.508-0.171 2.219-0.512 0.711-0.356 1.337-0.967 1.877-1.835 0.555-0.868 0.996-2.034 1.323-3.499s0.491-3.314 0.491-5.547zM45.035 26.667c0.569 0 1.017 0.164 1.344 0.491 0.341 0.313 0.512 0.732 0.512 1.259v3.157h-21.163v-1.749c0-0.356 0.071-0.725 0.213-1.109 0.156-0.398 0.398-0.754 0.725-1.067l9.365-9.387c0.782-0.796 1.479-1.557 2.091-2.283 0.626-0.725 1.145-1.444 1.557-2.155s0.725-1.429 0.939-2.155c0.228-0.74 0.341-1.515 0.341-2.325 0-0.74-0.107-1.387-0.32-1.941-0.213-0.569-0.519-1.045-0.917-1.429-0.384-0.384-0.853-0.668-1.408-0.853-0.54-0.199-1.152-0.299-1.835-0.299-0.626 0-1.209 0.092-1.749 0.277-0.526 0.171-0.996 0.42-1.408 0.747-0.412 0.313-0.761 0.683-1.045 1.109s-0.498 0.896-0.64 1.408c-0.242 0.654-0.555 1.088-0.939 1.301s-0.939 0.263-1.664 0.149l-2.773-0.491c0.213-1.479 0.626-2.773 1.237-3.883 0.612-1.124 1.372-2.055 2.283-2.795 0.924-0.754 1.977-1.316 3.157-1.685 1.195-0.384 2.475-0.576 3.84-0.576 1.422 0 2.724 0.213 3.904 0.64 1.18 0.412 2.19 1.003 3.029 1.771s1.493 1.692 1.963 2.773c0.469 1.081 0.704 2.283 0.704 3.605 0 1.138-0.171 2.19-0.512 3.157-0.327 0.967-0.775 1.892-1.344 2.773-0.555 0.882-1.209 1.735-1.963 2.56s-1.543 1.664-2.368 2.517l-6.955 7.104c0.668-0.199 1.33-0.348 1.984-0.448 0.668-0.114 1.301-0.171 1.899-0.171h7.915z"></path>
</symbol>
<symbol id="icon-01" viewBox="0 0 47 32">
<path d="M23.037 16.149c0 2.688-0.292 5.028-0.875 7.019-0.569 1.977-1.365 3.612-2.389 4.907-1.010 1.294-2.212 2.261-3.605 2.901-1.38 0.626-2.873 0.939-4.48 0.939s-3.1-0.313-4.48-0.939c-1.365-0.64-2.553-1.607-3.563-2.901s-1.799-2.93-2.368-4.907c-0.569-1.991-0.853-4.331-0.853-7.019 0-2.702 0.284-5.042 0.853-7.019s1.358-3.612 2.368-4.907c1.010-1.294 2.197-2.254 3.563-2.88 1.38-0.64 2.873-0.96 4.48-0.96s3.1 0.32 4.48 0.96c1.394 0.626 2.596 1.586 3.605 2.88 1.024 1.294 1.82 2.93 2.389 4.907 0.583 1.977 0.875 4.316 0.875 7.019zM17.597 16.149c0-2.233-0.164-4.082-0.491-5.547s-0.768-2.631-1.323-3.499c-0.54-0.868-1.166-1.472-1.877-1.813-0.711-0.356-1.451-0.533-2.219-0.533-0.754 0-1.486 0.178-2.197 0.533-0.697 0.341-1.316 0.946-1.856 1.813s-0.974 2.034-1.301 3.499c-0.313 1.465-0.469 3.314-0.469 5.547s0.156 4.082 0.469 5.547c0.327 1.465 0.761 2.631 1.301 3.499s1.159 1.479 1.856 1.835c0.711 0.341 1.444 0.512 2.197 0.512 0.768 0 1.508-0.171 2.219-0.512 0.711-0.356 1.337-0.967 1.877-1.835 0.555-0.868 0.996-2.034 1.323-3.499s0.491-3.314 0.491-5.547zM46.187 27.627v3.947h-17.067v-3.947h6.251v-17.984c0-0.711 0.021-1.444 0.064-2.197l-4.437 3.712c-0.256 0.199-0.512 0.327-0.768 0.384-0.242 0.043-0.476 0.043-0.704 0-0.213-0.043-0.405-0.114-0.576-0.213-0.171-0.114-0.299-0.235-0.384-0.363l-1.664-2.283 9.408-8h4.331v26.944h5.547z"></path>
</symbol>
</defs>
</svg>
